<svg xmlns="http://www.w3.org/2000/svg" xmlns:xlink="http://www.w3.org/1999/xlink" width="500" zoomAndPan="magnify" viewBox="0 0 375 374.999991" height="500" preserveAspectRatio="xMidYMid meet" version="1.0"><defs><g/></defs><g fill="#1578fe" fill-opacity="1"><g transform="translate(-8.016528, 254.325891)"><g><path d="M 53.734375 -98.125 C 58.160156 -102.550781 63.347656 -105.972656 69.296875 -108.390625 C 75.242188 -110.816406 81.46875 -112.03125 87.96875 -112.03125 C 100.6875 -112.03125 110.226562 -108.503906 116.59375 -101.453125 C 122.957031 -94.398438 126.140625 -84.234375 126.140625 -70.953125 L 126.140625 0 L 84.859375 0 L 84.859375 -65.96875 C 84.859375 -70.675781 83.644531 -74.445312 81.21875 -77.28125 C 78.800781 -80.113281 75.378906 -81.53125 70.953125 -81.53125 C 65.835938 -81.53125 61.6875 -79.867188 58.5 -76.546875 C 55.320312 -73.234375 53.734375 -69.15625 53.734375 -64.3125 L 53.734375 0 L 12.453125 0 L 12.453125 -150.421875 L 53.734375 -150.421875 Z M 53.734375 -98.125 "/></g></g></g><g fill="#1578fe" fill-opacity="1"><g transform="translate(118.519294, 254.325891)"><g><path d="M 57.046875 -152.90625 C 60.097656 -152.90625 63.90625 -152.523438 68.46875 -151.765625 C 73.03125 -151.003906 76.691406 -150.140625 79.453125 -149.171875 L 79.453125 -124.890625 L 69.921875 -124.890625 C 65.492188 -124.890625 62.445312 -124.0625 60.78125 -122.40625 C 59.125 -120.75 58.296875 -117.914062 58.296875 -113.90625 L 58.296875 -109.546875 L 79.453125 -109.546875 L 79.453125 -81.53125 L 58.296875 -81.53125 L 58.296875 0 L 17.015625 0 L 17.015625 -81.53125 L 1.65625 -81.53125 L 1.65625 -109.546875 L 17.015625 -109.546875 L 17.015625 -114.109375 C 17.015625 -128.210938 20.472656 -138.203125 27.390625 -144.078125 C 34.304688 -149.960938 44.191406 -152.90625 57.046875 -152.90625 Z M 57.046875 -152.90625 "/></g></g></g><g fill="#1578fe" fill-opacity="1"><g transform="translate(187.387062, 254.325891)"><g><path d="M 92.109375 0 L 88.59375 -15.5625 C 80.570312 -3.53125 68.953125 2.484375 53.734375 2.484375 C 38.929688 2.484375 27.519531 -2.351562 19.5 -12.03125 C 11.476562 -21.71875 7.46875 -36.035156 7.46875 -54.984375 C 7.46875 -73.785156 11.476562 -87.992188 19.5 -97.609375 C 27.519531 -107.222656 38.929688 -112.03125 53.734375 -112.03125 C 66.316406 -112.03125 76.550781 -107.8125 84.4375 -99.375 L 84.4375 -150.421875 L 125.71875 -150.421875 L 125.71875 0 Z M 66.59375 -81.53125 C 54.695312 -81.53125 48.75 -74.410156 48.75 -60.171875 L 48.75 -49.171875 C 48.75 -35.066406 54.695312 -28.015625 66.59375 -28.015625 C 72.675781 -28.015625 77.238281 -30.15625 80.28125 -34.4375 C 83.332031 -38.726562 84.859375 -44.332031 84.859375 -51.25 L 84.859375 -58.09375 C 84.859375 -65.007812 83.332031 -70.644531 80.28125 -75 C 77.238281 -79.351562 72.675781 -81.53125 66.59375 -81.53125 Z M 66.59375 -81.53125 "/></g></g></g><g fill="#1578fe" fill-opacity="1"><g transform="translate(313.922875, 254.325891)"><g><path d="M 12.65625 0 L 12.65625 -41.28125 L 56.640625 -41.28125 L 56.640625 0 Z M 12.65625 0 "/></g></g></g></svg>