<svg xmlns="http://www.w3.org/2000/svg" xmlns:xlink="http://www.w3.org/1999/xlink" width="500" zoomAndPan="magnify" viewBox="0 0 375 374.999991" height="500" preserveAspectRatio="xMidYMid meet" version="1.0"><defs><g/></defs><g fill="#1578fe" fill-opacity="1"><g transform="translate(-5.664609, 253.508963)"><g><path d="M 53.078125 -96.9375 C 57.453125 -101.3125 62.578125 -104.691406 68.453125 -107.078125 C 74.328125 -109.472656 80.472656 -110.671875 86.890625 -110.671875 C 99.460938 -110.671875 108.890625 -107.1875 115.171875 -100.21875 C 121.460938 -93.25 124.609375 -83.207031 124.609375 -70.09375 L 124.609375 0 L 83.8125 0 L 83.8125 -65.171875 C 83.8125 -69.816406 82.613281 -73.539062 80.21875 -76.34375 C 77.832031 -79.144531 74.457031 -80.546875 70.09375 -80.546875 C 65.03125 -80.546875 60.925781 -78.90625 57.78125 -75.625 C 54.644531 -72.34375 53.078125 -68.3125 53.078125 -63.53125 L 53.078125 0 L 12.296875 0 L 12.296875 -148.578125 L 53.078125 -148.578125 Z M 53.078125 -96.9375 "/></g></g></g><g fill="#1578fe" fill-opacity="1"><g transform="translate(119.324361, 253.508963)"><g><path d="M 56.359375 -151.03125 C 59.359375 -151.03125 63.113281 -150.65625 67.625 -149.90625 C 72.132812 -149.15625 75.753906 -148.300781 78.484375 -147.34375 L 78.484375 -123.375 L 69.0625 -123.375 C 64.6875 -123.375 61.679688 -122.550781 60.046875 -120.90625 C 58.410156 -119.269531 57.59375 -116.472656 57.59375 -112.515625 L 57.59375 -108.203125 L 78.484375 -108.203125 L 78.484375 -80.546875 L 57.59375 -80.546875 L 57.59375 0 L 16.8125 0 L 16.8125 -80.546875 L 1.640625 -80.546875 L 1.640625 -108.203125 L 16.8125 -108.203125 L 16.8125 -112.71875 C 16.8125 -126.65625 20.222656 -136.523438 27.046875 -142.328125 C 33.878906 -148.128906 43.648438 -151.03125 56.359375 -151.03125 Z M 56.359375 -151.03125 "/></g></g></g><g fill="#1578fe" fill-opacity="1"><g transform="translate(187.350246, 253.508963)"><g><path d="M 91 0 L 87.515625 -15.375 C 79.585938 -3.488281 68.109375 2.453125 53.078125 2.453125 C 38.460938 2.453125 27.191406 -2.328125 19.265625 -11.890625 C 11.335938 -21.453125 7.375 -35.59375 7.375 -54.3125 C 7.375 -72.894531 11.335938 -86.929688 19.265625 -96.421875 C 27.191406 -105.921875 38.460938 -110.671875 53.078125 -110.671875 C 65.515625 -110.671875 75.625 -106.503906 83.40625 -98.171875 L 83.40625 -148.578125 L 124.1875 -148.578125 L 124.1875 0 Z M 65.78125 -80.546875 C 54.03125 -80.546875 48.15625 -73.507812 48.15625 -59.4375 L 48.15625 -48.5625 C 48.15625 -34.632812 54.03125 -27.671875 65.78125 -27.671875 C 71.789062 -27.671875 76.296875 -29.785156 79.296875 -34.015625 C 82.304688 -38.253906 83.8125 -43.789062 83.8125 -50.625 L 83.8125 -57.375 C 83.8125 -64.207031 82.304688 -69.773438 79.296875 -74.078125 C 76.296875 -78.390625 71.789062 -80.546875 65.78125 -80.546875 Z M 65.78125 -80.546875 "/></g></g></g><g fill="#1578fe" fill-opacity="1"><g transform="translate(312.339208, 253.508963)"><g><path d="M 12.5 0 L 12.5 -40.78125 L 55.953125 -40.78125 L 55.953125 0 Z M 12.5 0 "/></g></g></g></svg>