<svg xmlns="http://www.w3.org/2000/svg" xmlns:xlink="http://www.w3.org/1999/xlink" width="500" zoomAndPan="magnify" viewBox="0 0 375 374.999991" height="500" preserveAspectRatio="xMidYMid meet" version="1.0"><defs><g/></defs><g fill="#1578fe" fill-opacity="1"><g transform="translate(88.958344, 270.444954)"><g><path d="M 18.8125 -16.671875 L 15.875 0 L 11.515625 0 L 12.65625 -6.46875 L 5.984375 -6.46875 L 4.859375 0 L 0.5 0 L 3.453125 -16.671875 L 7.796875 -16.671875 L 6.59375 -9.859375 L 13.265625 -9.859375 L 14.46875 -16.671875 Z M 18.8125 -16.671875 "/></g></g></g><g fill="#1578fe" fill-opacity="1"><g transform="translate(106.596816, 270.444954)"><g><path d="M 10.9375 -4.328125 L 5.703125 -4.328125 L 3.578125 0 L -1.03125 0 L 7.75 -16.671875 L 13.375 -16.671875 L 16.3125 0 L 11.578125 0 Z M 10.453125 -7.703125 L 9.765625 -12.640625 L 7.34375 -7.703125 Z M 10.453125 -7.703125 "/></g></g></g><g fill="#1578fe" fill-opacity="1"><g transform="translate(122.908135, 270.444954)"><g><path d="M 16.5 -12.90625 C 16.5 -10.320312 15.070312 -8.660156 12.21875 -7.921875 C 12.976562 -7.597656 13.5 -7.0625 13.78125 -6.3125 C 14.0625 -5.5625 14.203125 -4.53125 14.203125 -3.21875 C 14.203125 -2.519531 14.25 -1.910156 14.34375 -1.390625 C 14.445312 -0.867188 14.585938 -0.40625 14.765625 0 L 10.03125 0 C 9.957031 -0.445312 9.910156 -0.9375 9.890625 -1.46875 C 9.867188 -2 9.859375 -2.742188 9.859375 -3.703125 C 9.859375 -4.503906 9.726562 -5.128906 9.46875 -5.578125 C 9.207031 -6.023438 8.820312 -6.269531 8.3125 -6.3125 C 8.070312 -6.320312 7.84375 -6.328125 7.625 -6.328125 C 7.414062 -6.328125 7.191406 -6.328125 6.953125 -6.328125 L 5.96875 -6.328125 L 4.859375 0 L 0.5 0 L 3.453125 -16.671875 L 10.078125 -16.671875 C 10.585938 -16.671875 11.035156 -16.660156 11.421875 -16.640625 C 11.804688 -16.628906 12.21875 -16.597656 12.65625 -16.546875 C 13.363281 -16.460938 14.003906 -16.285156 14.578125 -16.015625 C 15.160156 -15.742188 15.625 -15.351562 15.96875 -14.84375 C 16.320312 -14.332031 16.5 -13.6875 16.5 -12.90625 Z M 6.515625 -9.46875 L 8.109375 -9.46875 C 8.335938 -9.46875 8.546875 -9.46875 8.734375 -9.46875 C 8.929688 -9.46875 9.113281 -9.476562 9.28125 -9.5 C 9.707031 -9.53125 10.109375 -9.617188 10.484375 -9.765625 C 10.867188 -9.910156 11.175781 -10.140625 11.40625 -10.453125 C 11.644531 -10.765625 11.765625 -11.203125 11.765625 -11.765625 C 11.765625 -12.304688 11.597656 -12.679688 11.265625 -12.890625 C 10.941406 -13.109375 10.535156 -13.234375 10.046875 -13.265625 C 9.890625 -13.273438 9.710938 -13.28125 9.515625 -13.28125 C 9.328125 -13.28125 9.117188 -13.28125 8.890625 -13.28125 L 7.203125 -13.28125 Z M 6.515625 -9.46875 "/></g></g></g><g fill="#1578fe" fill-opacity="1"><g transform="translate(138.254226, 270.444954)"><g><path d="M 16.5 -12.90625 C 16.5 -10.320312 15.070312 -8.660156 12.21875 -7.921875 C 12.976562 -7.597656 13.5 -7.0625 13.78125 -6.3125 C 14.0625 -5.5625 14.203125 -4.53125 14.203125 -3.21875 C 14.203125 -2.519531 14.25 -1.910156 14.34375 -1.390625 C 14.445312 -0.867188 14.585938 -0.40625 14.765625 0 L 10.03125 0 C 9.957031 -0.445312 9.910156 -0.9375 9.890625 -1.46875 C 9.867188 -2 9.859375 -2.742188 9.859375 -3.703125 C 9.859375 -4.503906 9.726562 -5.128906 9.46875 -5.578125 C 9.207031 -6.023438 8.820312 -6.269531 8.3125 -6.3125 C 8.070312 -6.320312 7.84375 -6.328125 7.625 -6.328125 C 7.414062 -6.328125 7.191406 -6.328125 6.953125 -6.328125 L 5.96875 -6.328125 L 4.859375 0 L 0.5 0 L 3.453125 -16.671875 L 10.078125 -16.671875 C 10.585938 -16.671875 11.035156 -16.660156 11.421875 -16.640625 C 11.804688 -16.628906 12.21875 -16.597656 12.65625 -16.546875 C 13.363281 -16.460938 14.003906 -16.285156 14.578125 -16.015625 C 15.160156 -15.742188 15.625 -15.351562 15.96875 -14.84375 C 16.320312 -14.332031 16.5 -13.6875 16.5 -12.90625 Z M 6.515625 -9.46875 L 8.109375 -9.46875 C 8.335938 -9.46875 8.546875 -9.46875 8.734375 -9.46875 C 8.929688 -9.46875 9.113281 -9.476562 9.28125 -9.5 C 9.707031 -9.53125 10.109375 -9.617188 10.484375 -9.765625 C 10.867188 -9.910156 11.175781 -10.140625 11.40625 -10.453125 C 11.644531 -10.765625 11.765625 -11.203125 11.765625 -11.765625 C 11.765625 -12.304688 11.597656 -12.679688 11.265625 -12.890625 C 10.941406 -13.109375 10.535156 -13.234375 10.046875 -13.265625 C 9.890625 -13.273438 9.710938 -13.28125 9.515625 -13.28125 C 9.328125 -13.28125 9.117188 -13.28125 8.890625 -13.28125 L 7.203125 -13.28125 Z M 6.515625 -9.46875 "/></g></g></g><g fill="#1578fe" fill-opacity="1"><g transform="translate(153.60032, 270.444954)"><g><path d="M 4.859375 0 L 0.5 0 L 3.453125 -16.671875 L 7.796875 -16.671875 Z M 4.859375 0 "/></g></g></g><g fill="#1578fe" fill-opacity="1"><g transform="translate(160.23538, 270.444954)"><g><path d="M 9.171875 -17 C 10.640625 -17 11.8125 -16.757812 12.6875 -16.28125 C 13.570312 -15.800781 14.203125 -15.144531 14.578125 -14.3125 C 14.953125 -13.476562 15.109375 -12.546875 15.046875 -11.515625 L 10.703125 -11.515625 C 10.734375 -12.210938 10.59375 -12.769531 10.28125 -13.1875 C 9.976562 -13.601562 9.472656 -13.8125 8.765625 -13.8125 C 8.203125 -13.8125 7.726562 -13.660156 7.34375 -13.359375 C 6.96875 -13.066406 6.78125 -12.628906 6.78125 -12.046875 C 6.78125 -11.597656 7.007812 -11.207031 7.46875 -10.875 C 7.9375 -10.550781 8.753906 -10.242188 9.921875 -9.953125 C 11.453125 -9.578125 12.5625 -9.003906 13.25 -8.234375 C 13.9375 -7.460938 14.28125 -6.550781 14.28125 -5.5 C 14.28125 -4.539062 14.070312 -3.691406 13.65625 -2.953125 C 13.25 -2.222656 12.6875 -1.613281 11.96875 -1.125 C 11.25 -0.632812 10.4375 -0.265625 9.53125 -0.015625 C 8.632812 0.222656 7.703125 0.34375 6.734375 0.34375 C 5.398438 0.34375 4.226562 0.148438 3.21875 -0.234375 C 2.21875 -0.628906 1.457031 -1.226562 0.9375 -2.03125 C 0.425781 -2.832031 0.234375 -3.851562 0.359375 -5.09375 L 4.703125 -5.09375 C 4.703125 -4.300781 4.957031 -3.726562 5.46875 -3.375 C 5.976562 -3.019531 6.554688 -2.84375 7.203125 -2.84375 C 7.859375 -2.84375 8.421875 -3.007812 8.890625 -3.34375 C 9.367188 -3.675781 9.609375 -4.109375 9.609375 -4.640625 C 9.609375 -5.003906 9.421875 -5.363281 9.046875 -5.71875 C 8.679688 -6.070312 8.066406 -6.363281 7.203125 -6.59375 C 5.585938 -7.007812 4.335938 -7.550781 3.453125 -8.21875 C 2.566406 -8.894531 2.125 -9.859375 2.125 -11.109375 C 2.125 -12.054688 2.316406 -12.894531 2.703125 -13.625 C 3.085938 -14.363281 3.613281 -14.984375 4.28125 -15.484375 C 4.957031 -15.984375 5.710938 -16.359375 6.546875 -16.609375 C 7.378906 -16.867188 8.253906 -17 9.171875 -17 Z M 9.171875 -17 "/></g></g></g><g fill="#1578fe" fill-opacity="1"><g transform="translate(174.616272, 270.444954)"><g/></g></g><g fill="#1578fe" fill-opacity="1"><g transform="translate(176.956152, 270.444954)"><g><path d="M 7.203125 -13.28125 L 6.640625 -10.046875 L 14.109375 -10.046875 L 13.5 -6.671875 L 6.046875 -6.671875 L 4.859375 0 L 0.5 0 L 3.453125 -16.671875 L 15.984375 -16.671875 L 15.390625 -13.28125 Z M 7.203125 -13.28125 "/></g></g></g><g fill="#1578fe" fill-opacity="1"><g transform="translate(190.782042, 270.444954)"><g><path d="M 10.9375 -4.328125 L 5.703125 -4.328125 L 3.578125 0 L -1.03125 0 L 7.75 -16.671875 L 13.375 -16.671875 L 16.3125 0 L 11.578125 0 Z M 10.453125 -7.703125 L 9.765625 -12.640625 L 7.34375 -7.703125 Z M 10.453125 -7.703125 "/></g></g></g><g fill="#1578fe" fill-opacity="1"><g transform="translate(207.093362, 270.444954)"><g><path d="M 22.515625 -16.671875 L 19.5625 0 L 15.21875 0 L 17.421875 -12.21875 L 12.5625 0 L 7.515625 0 L 6.984375 -12.21875 L 4.859375 0 L 0.5 0 L 3.453125 -16.671875 L 10.53125 -16.671875 L 10.921875 -4.6875 L 15.265625 -16.671875 Z M 22.515625 -16.671875 "/></g></g></g><g fill="#1578fe" fill-opacity="1"><g transform="translate(228.423788, 270.444954)"><g><path d="M 4.859375 0 L 0.5 0 L 3.453125 -16.671875 L 7.796875 -16.671875 Z M 4.859375 0 "/></g></g></g><g fill="#1578fe" fill-opacity="1"><g transform="translate(235.058849, 270.444954)"><g><path d="M 13.9375 -3.671875 L 13.28125 0 L 0.5 0 L 3.453125 -16.671875 L 7.796875 -16.671875 L 5.5 -3.671875 Z M 13.9375 -3.671875 "/></g></g></g><g fill="#1578fe" fill-opacity="1"><g transform="translate(249.1743, 270.444954)"><g><path d="M 10.78125 -6.25 L 9.65625 0 L 5.3125 0 L 6.453125 -6.40625 L 2.390625 -16.671875 L 7.03125 -16.671875 L 9.328125 -10 L 13.671875 -16.671875 L 18.484375 -16.671875 Z M 10.78125 -6.25 "/></g></g></g><g fill="#1578fe" fill-opacity="1"><g transform="translate(264.906484, 270.444954)"><g/></g></g><g fill="#1578fe" fill-opacity="1"><g transform="translate(267.246365, 270.444954)"><g><path d="M 11.84375 -16.578125 C 12.945312 -16.441406 13.929688 -16.109375 14.796875 -15.578125 C 15.671875 -15.046875 16.363281 -14.285156 16.875 -13.296875 C 17.382812 -12.304688 17.640625 -11.070312 17.640625 -9.59375 C 17.640625 -7.976562 17.316406 -6.484375 16.671875 -5.109375 C 16.035156 -3.734375 15.070312 -2.597656 13.78125 -1.703125 C 12.5 -0.804688 10.882812 -0.265625 8.9375 -0.078125 C 8.5 -0.046875 8.144531 -0.0234375 7.875 -0.015625 C 7.601562 -0.00390625 7.238281 0 6.78125 0 L 0.5 0 L 3.453125 -16.671875 L 9.515625 -16.671875 C 9.953125 -16.671875 10.347656 -16.664062 10.703125 -16.65625 C 11.054688 -16.644531 11.4375 -16.617188 11.84375 -16.578125 Z M 8.5 -3.4375 C 9.550781 -3.53125 10.410156 -3.863281 11.078125 -4.4375 C 11.742188 -5.007812 12.238281 -5.734375 12.5625 -6.609375 C 12.882812 -7.484375 13.046875 -8.4375 13.046875 -9.46875 C 13.046875 -10.726562 12.800781 -11.648438 12.3125 -12.234375 C 11.820312 -12.816406 11.125 -13.148438 10.21875 -13.234375 C 9.945312 -13.265625 9.695312 -13.28125 9.46875 -13.28125 C 9.238281 -13.28125 8.960938 -13.28125 8.640625 -13.28125 L 7.203125 -13.28125 L 5.453125 -3.375 L 6.9375 -3.375 C 7.257812 -3.375 7.53125 -3.378906 7.75 -3.390625 C 7.976562 -3.398438 8.226562 -3.414062 8.5 -3.4375 Z M 8.5 -3.4375 "/></g></g></g><g fill="#1578fe" fill-opacity="1"><g transform="translate(284.402238, 270.444954)"><g><path d="M 7.203125 -13.28125 L 6.640625 -10.046875 L 14.34375 -10.046875 L 13.75 -6.671875 L 6.046875 -6.671875 L 5.453125 -3.375 L 13.890625 -3.375 L 13.28125 0 L 0.5 0 L 3.453125 -16.671875 L 15.984375 -16.671875 L 15.390625 -13.28125 Z M 7.203125 -13.28125 "/></g></g></g><g fill="#1578fe" fill-opacity="1"><g transform="translate(298.807257, 270.444954)"><g><path d="M 9.171875 -17 C 10.640625 -17 11.8125 -16.757812 12.6875 -16.28125 C 13.570312 -15.800781 14.203125 -15.144531 14.578125 -14.3125 C 14.953125 -13.476562 15.109375 -12.546875 15.046875 -11.515625 L 10.703125 -11.515625 C 10.734375 -12.210938 10.59375 -12.769531 10.28125 -13.1875 C 9.976562 -13.601562 9.472656 -13.8125 8.765625 -13.8125 C 8.203125 -13.8125 7.726562 -13.660156 7.34375 -13.359375 C 6.96875 -13.066406 6.78125 -12.628906 6.78125 -12.046875 C 6.78125 -11.597656 7.007812 -11.207031 7.46875 -10.875 C 7.9375 -10.550781 8.753906 -10.242188 9.921875 -9.953125 C 11.453125 -9.578125 12.5625 -9.003906 13.25 -8.234375 C 13.9375 -7.460938 14.28125 -6.550781 14.28125 -5.5 C 14.28125 -4.539062 14.070312 -3.691406 13.65625 -2.953125 C 13.25 -2.222656 12.6875 -1.613281 11.96875 -1.125 C 11.25 -0.632812 10.4375 -0.265625 9.53125 -0.015625 C 8.632812 0.222656 7.703125 0.34375 6.734375 0.34375 C 5.398438 0.34375 4.226562 0.148438 3.21875 -0.234375 C 2.21875 -0.628906 1.457031 -1.226562 0.9375 -2.03125 C 0.425781 -2.832031 0.234375 -3.851562 0.359375 -5.09375 L 4.703125 -5.09375 C 4.703125 -4.300781 4.957031 -3.726562 5.46875 -3.375 C 5.976562 -3.019531 6.554688 -2.84375 7.203125 -2.84375 C 7.859375 -2.84375 8.421875 -3.007812 8.890625 -3.34375 C 9.367188 -3.675781 9.609375 -4.109375 9.609375 -4.640625 C 9.609375 -5.003906 9.421875 -5.363281 9.046875 -5.71875 C 8.679688 -6.070312 8.066406 -6.363281 7.203125 -6.59375 C 5.585938 -7.007812 4.335938 -7.550781 3.453125 -8.21875 C 2.566406 -8.894531 2.125 -9.859375 2.125 -11.109375 C 2.125 -12.054688 2.316406 -12.894531 2.703125 -13.625 C 3.085938 -14.363281 3.613281 -14.984375 4.28125 -15.484375 C 4.957031 -15.984375 5.710938 -16.359375 6.546875 -16.609375 C 7.378906 -16.867188 8.253906 -17 9.171875 -17 Z M 9.171875 -17 "/></g></g></g><g fill="#1578fe" fill-opacity="1"><g transform="translate(313.188137, 270.444954)"><g><path d="M 4.859375 0 L 0.5 0 L 3.453125 -16.671875 L 7.796875 -16.671875 Z M 4.859375 0 "/></g></g></g><g fill="#1578fe" fill-opacity="1"><g transform="translate(319.823185, 270.444954)"><g><path d="M 11.734375 -17 C 13.328125 -17 14.613281 -16.738281 15.59375 -16.21875 C 16.582031 -15.707031 17.296875 -15.015625 17.734375 -14.140625 C 18.171875 -13.265625 18.347656 -12.28125 18.265625 -11.1875 L 18.234375 -10.9375 L 13.890625 -10.9375 L 13.890625 -11.1875 C 13.835938 -12.9375 12.921875 -13.8125 11.140625 -13.8125 C 10.285156 -13.8125 9.472656 -13.550781 8.703125 -13.03125 C 7.941406 -12.519531 7.316406 -11.753906 6.828125 -10.734375 C 6.347656 -9.710938 6.109375 -8.429688 6.109375 -6.890625 C 6.109375 -5.898438 6.242188 -5.109375 6.515625 -4.515625 C 6.796875 -3.929688 7.164062 -3.503906 7.625 -3.234375 C 8.09375 -2.972656 8.609375 -2.84375 9.171875 -2.84375 C 10.023438 -2.84375 10.769531 -3.054688 11.40625 -3.484375 C 12.050781 -3.910156 12.597656 -4.582031 13.046875 -5.5 L 9.8125 -5.5 L 10.40625 -8.890625 L 17.75 -8.890625 L 16.1875 0 L 12.796875 0 L 12.84375 -2.578125 L 11.78125 -0.71875 C 11.25 -0.320312 10.671875 -0.046875 10.046875 0.109375 C 9.421875 0.265625 8.664062 0.34375 7.78125 0.34375 C 5.875 0.34375 4.347656 -0.226562 3.203125 -1.375 C 2.066406 -2.519531 1.5 -4.1875 1.5 -6.375 C 1.5 -8.113281 1.785156 -9.644531 2.359375 -10.96875 C 2.929688 -12.289062 3.703125 -13.398438 4.671875 -14.296875 C 5.648438 -15.203125 6.742188 -15.878906 7.953125 -16.328125 C 9.171875 -16.773438 10.429688 -17 11.734375 -17 Z M 11.734375 -17 "/></g></g></g><g fill="#1578fe" fill-opacity="1"><g transform="translate(337.847737, 270.444954)"><g><path d="M 19.390625 -16.671875 L 16.453125 0 L 10.78125 0 L 6.78125 -11.046875 L 4.859375 0 L 0.5 0 L 3.453125 -16.671875 L 8.859375 -16.671875 L 13.046875 -5.140625 L 15.046875 -16.671875 Z M 19.390625 -16.671875 "/></g></g></g><g fill="#1578fe" fill-opacity="1"><g transform="translate(356.065335, 270.444954)"><g><path d="M 9.171875 -17 C 10.640625 -17 11.8125 -16.757812 12.6875 -16.28125 C 13.570312 -15.800781 14.203125 -15.144531 14.578125 -14.3125 C 14.953125 -13.476562 15.109375 -12.546875 15.046875 -11.515625 L 10.703125 -11.515625 C 10.734375 -12.210938 10.59375 -12.769531 10.28125 -13.1875 C 9.976562 -13.601562 9.472656 -13.8125 8.765625 -13.8125 C 8.203125 -13.8125 7.726562 -13.660156 7.34375 -13.359375 C 6.96875 -13.066406 6.78125 -12.628906 6.78125 -12.046875 C 6.78125 -11.597656 7.007812 -11.207031 7.46875 -10.875 C 7.9375 -10.550781 8.753906 -10.242188 9.921875 -9.953125 C 11.453125 -9.578125 12.5625 -9.003906 13.25 -8.234375 C 13.9375 -7.460938 14.28125 -6.550781 14.28125 -5.5 C 14.28125 -4.539062 14.070312 -3.691406 13.65625 -2.953125 C 13.25 -2.222656 12.6875 -1.613281 11.96875 -1.125 C 11.25 -0.632812 10.4375 -0.265625 9.53125 -0.015625 C 8.632812 0.222656 7.703125 0.34375 6.734375 0.34375 C 5.398438 0.34375 4.226562 0.148438 3.21875 -0.234375 C 2.21875 -0.628906 1.457031 -1.226562 0.9375 -2.03125 C 0.425781 -2.832031 0.234375 -3.851562 0.359375 -5.09375 L 4.703125 -5.09375 C 4.703125 -4.300781 4.957031 -3.726562 5.46875 -3.375 C 5.976562 -3.019531 6.554688 -2.84375 7.203125 -2.84375 C 7.859375 -2.84375 8.421875 -3.007812 8.890625 -3.34375 C 9.367188 -3.675781 9.609375 -4.109375 9.609375 -4.640625 C 9.609375 -5.003906 9.421875 -5.363281 9.046875 -5.71875 C 8.679688 -6.070312 8.066406 -6.363281 7.203125 -6.59375 C 5.585938 -7.007812 4.335938 -7.550781 3.453125 -8.21875 C 2.566406 -8.894531 2.125 -9.859375 2.125 -11.109375 C 2.125 -12.054688 2.316406 -12.894531 2.703125 -13.625 C 3.085938 -14.363281 3.613281 -14.984375 4.28125 -15.484375 C 4.957031 -15.984375 5.710938 -16.359375 6.546875 -16.609375 C 7.378906 -16.867188 8.253906 -17 9.171875 -17 Z M 9.171875 -17 "/></g></g></g><g fill="#1578fe" fill-opacity="1"><g transform="translate(-8.016528, 240.992563)"><g><path d="M 53.734375 -98.125 C 58.160156 -102.550781 63.347656 -105.972656 69.296875 -108.390625 C 75.242188 -110.816406 81.46875 -112.03125 87.96875 -112.03125 C 100.6875 -112.03125 110.226562 -108.503906 116.59375 -101.453125 C 122.957031 -94.398438 126.140625 -84.234375 126.140625 -70.953125 L 126.140625 0 L 84.859375 0 L 84.859375 -65.96875 C 84.859375 -70.675781 83.644531 -74.445312 81.21875 -77.28125 C 78.800781 -80.113281 75.378906 -81.53125 70.953125 -81.53125 C 65.835938 -81.53125 61.6875 -79.867188 58.5 -76.546875 C 55.320312 -73.234375 53.734375 -69.15625 53.734375 -64.3125 L 53.734375 0 L 12.453125 0 L 12.453125 -150.421875 L 53.734375 -150.421875 Z M 53.734375 -98.125 "/></g></g></g><g fill="#1578fe" fill-opacity="1"><g transform="translate(118.519294, 240.992563)"><g><path d="M 57.046875 -152.90625 C 60.097656 -152.90625 63.90625 -152.523438 68.46875 -151.765625 C 73.03125 -151.003906 76.691406 -150.140625 79.453125 -149.171875 L 79.453125 -124.890625 L 69.921875 -124.890625 C 65.492188 -124.890625 62.445312 -124.0625 60.78125 -122.40625 C 59.125 -120.75 58.296875 -117.914062 58.296875 -113.90625 L 58.296875 -109.546875 L 79.453125 -109.546875 L 79.453125 -81.53125 L 58.296875 -81.53125 L 58.296875 0 L 17.015625 0 L 17.015625 -81.53125 L 1.65625 -81.53125 L 1.65625 -109.546875 L 17.015625 -109.546875 L 17.015625 -114.109375 C 17.015625 -128.210938 20.472656 -138.203125 27.390625 -144.078125 C 34.304688 -149.960938 44.191406 -152.90625 57.046875 -152.90625 Z M 57.046875 -152.90625 "/></g></g></g><g fill="#1578fe" fill-opacity="1"><g transform="translate(187.387062, 240.992563)"><g><path d="M 92.109375 0 L 88.59375 -15.5625 C 80.570312 -3.53125 68.953125 2.484375 53.734375 2.484375 C 38.929688 2.484375 27.519531 -2.351562 19.5 -12.03125 C 11.476562 -21.71875 7.46875 -36.035156 7.46875 -54.984375 C 7.46875 -73.785156 11.476562 -87.992188 19.5 -97.609375 C 27.519531 -107.222656 38.929688 -112.03125 53.734375 -112.03125 C 66.316406 -112.03125 76.550781 -107.8125 84.4375 -99.375 L 84.4375 -150.421875 L 125.71875 -150.421875 L 125.71875 0 Z M 66.59375 -81.53125 C 54.695312 -81.53125 48.75 -74.410156 48.75 -60.171875 L 48.75 -49.171875 C 48.75 -35.066406 54.695312 -28.015625 66.59375 -28.015625 C 72.675781 -28.015625 77.238281 -30.15625 80.28125 -34.4375 C 83.332031 -38.726562 84.859375 -44.332031 84.859375 -51.25 L 84.859375 -58.09375 C 84.859375 -65.007812 83.332031 -70.644531 80.28125 -75 C 77.238281 -79.351562 72.675781 -81.53125 66.59375 -81.53125 Z M 66.59375 -81.53125 "/></g></g></g><g fill="#1578fe" fill-opacity="1"><g transform="translate(313.922875, 240.992563)"><g><path d="M 12.65625 0 L 12.65625 -41.28125 L 56.640625 -41.28125 L 56.640625 0 Z M 12.65625 0 "/></g></g></g></svg>